PathFileType	4	(X/Y/Z)	D:\TRACE\spot_10-12-23\spot_arm_motion_2_5-platform.trc
DataRate	CameraRate	NumFrames	NumMarkers	Units	OrigDataRate	OrigDataStartFrame	OrigNumFrames
100.00	100.00	      36	5	mm	100.00	1751	      7000
Frame#	Time	Left_Front			Right_Front			Left_Aft			Right_Aft			Post			
		X1	Y1	Z1	X2	Y2	Z2	X3	Y3	Z3	X4	Y4	Z4	X5	Y5	Z5	

1751	17.500	-730.42615	54.25732	-628.27881	842.26343	59.07803	-621.56158	-647.11719	-28.31419	506.57089	770.31775	-29.47248	592.63873	52.19933	813.37451	-892.23145	
1752	17.510	-730.51465	55.42237	-628.13904	842.18738	59.86788	-621.14136	-647.13794	-29.09156	506.82761	770.31543	-30.26696	592.76440	52.22411	814.83356	-890.69800	
1753	17.520	-730.48291	56.39455	-627.76202	842.13611	60.74860	-620.97156	-647.18799	-29.79556	506.89713	770.18469	-31.05329	592.91321	52.21783	816.10590	-888.89252	
1754	17.530	-730.43066	57.33241	-627.45996	842.06769	61.92565	-620.67297	-647.28705	-30.42011	507.01187	770.26343	-31.98191	593.09778	52.03476	817.35193	-887.80182	
1755	17.540	-730.56940	58.08840	-627.03937	842.24097	62.76894	-620.44458	-647.14429	-31.03391	507.26352	770.44867	-32.59650	593.31049	52.16548	818.52020	-886.11493	
1756	17.550	-730.36261	58.82614	-626.78406	842.10522	63.58418	-620.07086	-647.02887	-31.75315	507.52002	770.32635	-33.29041	593.37305	52.01299	819.81427	-884.84320	
1757	17.560	-730.46570	60.03893	-626.63086	842.11005	64.30025	-619.70581	-647.16705	-32.35440	507.70074	770.24933	-34.01677	593.56091	51.92731	820.92798	-883.75897	
1758	17.570	-730.57697	60.55581	-626.46069	842.04443	65.19339	-619.40479	-647.46625	-32.78668	507.72827	770.09271	-34.98426	593.71191	51.98294	822.13281	-882.45087	
1759	17.580	-730.98810	61.40614	-625.98352	841.63306	66.06563	-619.11993	-647.77399	-33.42730	507.79010	769.98627	-35.45645	593.79926	51.49928	823.29639	-881.44910	
1760	17.590	-731.35962	62.25451	-625.65143	841.20404	66.91134	-618.97406	-647.97491	-34.04277	507.99823	769.43048	-36.17518	594.00677	51.31306	824.42859	-880.48932	
1761	17.600	-731.62848	62.98751	-625.40576	840.89270	67.53027	-618.75604	-648.28003	-34.64108	508.10043	768.79108	-36.75588	594.04950	50.91590	825.55872	-879.61243	
1762	17.610	-731.88861	63.81053	-625.17310	840.54620	68.11083	-618.55420	-648.57050	-35.23205	508.23383	768.43048	-37.34816	594.15393	50.49890	826.49365	-878.59674	
1763	17.620	-732.26263	64.34848	-625.03925	840.30634	68.85192	-618.28253	-648.81836	-35.49030	508.39075	768.17969	-37.71498	594.33716	50.28314	827.15277	-877.34412	
1764	17.630	-732.54309	64.85484	-624.95093	840.12842	69.52989	-617.98901	-649.04083	-36.01746	508.88318	767.90997	-38.29867	594.40417	49.76187	827.94427	-876.43378	
1765	17.640	-732.72797	65.34399	-624.69208	839.82898	69.99586	-617.83362	-649.48187	-36.55731	508.90463	767.64423	-38.84130	594.48254	49.48186	828.76257	-875.63171	
1766	17.650	-733.22125	65.80516	-624.37189	839.52063	70.42841	-617.73486	-649.84558	-36.97882	508.92896	767.30371	-39.37560	594.65338	49.19114	829.50745	-874.65503	
1767	17.660	-733.80939	66.33157	-624.17853	838.92194	70.98555	-617.60345	-650.48267	-36.96368	508.82455	766.96777	-39.84048	594.73505	48.73935	830.15601	-873.84192	
1768	17.670	-734.18451	66.64419	-624.08441	838.30170	71.43336	-617.50238	-650.88409	-37.40995	508.97409	766.58295	-40.16188	594.84662	48.21393	830.74945	-873.17920	
1769	17.680	-734.72186	67.38577	-624.03351	837.82465	71.68497	-617.36475	-651.32513	-37.92959	509.26221	766.06488	-40.60297	594.91595	47.73706	831.34399	-872.51898	
1770	17.690	-735.22278	67.70004	-623.79376	837.09973	72.21278	-617.17773	-651.77246	-38.06221	509.31549	765.46173	-40.94440	594.90186	47.34742	831.99860	-871.85034	
1771	17.700	-735.75946	68.19505	-623.77258	836.78394	72.54755	-617.01038	-652.25055	-38.37717	509.38553	764.88147	-41.16356	594.92792	46.92003	832.67828	-871.48090	
1772	17.710	-736.19543	68.50046	-623.74231	836.44501	72.92277	-616.91040	-652.83990	-38.60403	509.38727	764.40363	-41.37666	595.00256	46.64096	833.11060	-871.08008	
1773	17.720	-736.67999	68.76235	-623.63196	836.01941	73.35633	-616.70923	-653.24323	-38.73615	509.37427	763.93121	-41.64786	595.06750	46.00860	833.51770	-870.65015	
1774	17.730	-737.19513	68.90784	-623.44128	835.51691	73.52683	-616.63147	-653.67920	-38.83393	509.29617	763.50220	-41.93756	595.15784	45.28719	833.84857	-870.26300	
1775	17.740	-737.69177	69.05778	-623.20087	834.83356	73.60414	-616.60925	-654.35535	-39.10908	509.31039	763.05524	-42.27113	595.18713	44.62478	834.09064	-869.88562	
1776	17.750	-738.36816	69.34428	-623.26416	834.18243	73.84699	-616.42816	-655.11273	-39.30254	509.38388	762.34619	-42.47849	595.09235	44.04313	834.28760	-869.50275	
1777	17.760	-739.08667	69.61620	-623.28632	833.62970	74.06029	-616.41913	-655.60779	-39.34332	509.45309	761.53674	-42.57396	595.08228	43.51698	834.48212	-869.24420	
1778	17.770	-739.57904	69.66982	-623.28503	833.18463	74.25701	-616.47552	-656.13782	-39.42510	509.51352	761.03973	-42.60022	595.13617	43.06882	834.57672	-869.11304	
1779	17.780	-740.42432	69.94577	-623.16882	832.55701	74.33514	-616.48260	-656.80939	-39.58044	509.42627	760.55243	-42.54111	595.14606	42.39454	834.71265	-868.86737	
1780	17.790	-740.87598	69.94405	-623.20612	831.63275	74.26295	-616.52924	-657.47766	-39.63157	509.46182	760.10297	-42.62833	595.22205	41.73915	834.81927	-868.71252	
1781	17.800	-741.41461	69.99348	-623.27429	831.05908	74.21241	-616.31836	-658.08551	-39.66204	509.43402	759.27313	-42.72480	595.20099	41.24978	834.81061	-868.70386	
1782	17.810	-742.17438	69.80697	-623.26367	830.57520	74.27808	-616.38617	-658.78796	-39.51849	509.38394	758.43646	-42.72374	595.20203	40.66956	834.81525	-868.82867	
1783	17.820	-742.84338	69.69743	-623.17242	830.14319	74.31058	-616.41669	-659.43634	-39.47298	509.24457	757.88776	-42.69899	595.23993	39.75714	834.91589	-869.05579	
1784	17.830	-743.77069	69.67166	-623.31543	829.09576	74.20138	-616.59473	-660.32281	-39.27714	509.31683	757.20703	-42.64380	595.23883	38.75690	834.83508	-869.27698	
1785	17.840	-744.11652	69.58797	-623.35272	828.06299	73.95385	-616.65948	-661.00562	-39.27768	509.33264	756.28839	-42.52489	595.17657	38.13175	834.46838	-869.39661	
1786	17.850	-745.03644	69.49792	-623.45581	827.43359	73.82775	-616.58716	-661.75195	-39.18344	509.31329	755.46912	-42.33573	595.03271	37.67254	834.15063	-869.44983	
